<?xml version="1.0" encoding="UTF-8" standalone="no"?>
<!-- Created with Inkscape (http://www.inkscape.org/) -->

<svg
   version="1.1"
   id="svg1"
   width="787.68494"
   height="442.99997"
   viewBox="0 0 858.25125 482.687"
   xmlns="http://www.w3.org/2000/svg"
   xmlns:svg="http://www.w3.org/2000/svg">
  <defs
     id="defs1" />
  <g
     id="g1"
     transform="translate(-623.20792,-273.60396)">
    <g
       id="g2">
      <path
         style="fill:#2ca02c"
         d="m 1062.6259,660.75397 c -4.1281,-16.238 -12.9793,-48.7086 -23.3066,-85.5 l -10.3859,-37 -0.2659,-119.24997 -0.2659,-119.25 h 8.3583 8.3585 l 4.3023,16.75 c 10.3653,40.3551 29.0399,109.42567 45.6247,168.75 18.9473,67.77447 21.5911,77.01177 22.2405,77.70647 0.3633,0.3885 2.1748,-4.7865 4.0257,-11.5 4.5791,-16.61 17.9642,-61.35401 24.7413,-82.70647 15.5899,-49.11841 18.9861,-59.5725 23.3904,-72 2.6314,-7.425 11.436,-32.31292 19.5659,-55.30649 10.7971,-30.53736 15.0257,-41.37024 15.6873,-40.18809 0.4981,0.89011 2.161,5.30303 3.6952,9.80649 1.5343,4.50345 8.6396,23.26309 15.7897,41.68809 11.535,29.72439 24.9231,68.81924 58.5591,170.99997 5.1599,15.675 10.2336,31.5375 11.2748,35.25 1.7693,6.308 3.4182,8.7975 3.4182,5.1605 0,-4.0025 17.2473,-71.24591 38.7072,-150.91047 1.926,-7.15 5.1822,-19.3 7.2359,-27 2.0536,-7.7 8.1713,-30.3125 13.5948,-50.25 l 9.8608,-36.25 h 41.8681 c 39.3961,0 41.8388,0.10332 41.3731,1.75 -0.7191,2.54324 -6.9588,25.07373 -20.1477,72.75 -10.0097,36.18365 -17.1987,62.01074 -33.9591,122 -1.8439,6.59997 -5.0028,18.07497 -7.0197,25.49997 -2.0169,7.425 -6.0758,22.05 -9.0199,32.5 -2.944,10.45 -6.7135,23.95 -8.3766,30 -1.6631,6.05 -5.9309,21.575 -9.484,34.5 -3.5531,12.925 -7.8951,28.9 -9.6488,35.5 -1.7537,6.6 -3.4801,12.5174 -3.8364,13.1499 -0.4692,0.833 -14.5915,1.2786 -51.2482,1.617 l -50.6004,0.4672 -8.0647,-25.1171 c -12.9326,-40.2781 -28.9794,-90.7559 -30.3272,-95.3991 -0.6837,-2.3551 -1.5589,-3.9301 -1.9449,-3.5 -0.3861,0.4302 -3.0635,8.8821 -5.9498,18.7821 -2.8863,9.9 -8.9696,30.15 -13.5184,45 -4.5489,14.85 -10.3859,33.975 -12.9713,42.5 -2.5853,8.525 -4.9981,15.8108 -5.3617,16.1906 -0.3636,0.3798 -23.8691,0.8298 -52.2344,1 l -51.5733,0.3094 z"
         id="path2" />
      <path
         style="fill:#2c89a0"
         d="m 839.90549,741.37647 c -1.08488,-0.7577 -6.92251,-3.9827 -12.97251,-7.1667 -6.05,-3.184 -12.56696,-6.8392 -14.48213,-8.1225 -1.91518,-1.2833 -3.80357,-2.3333 -4.19643,-2.3333 -0.39286,0 -3.3259,-1.4985 -6.51786,-3.33 -3.19197,-1.8316 -11.87858,-6.625 -19.30358,-10.6521 -18.83145,-10.2136 -39.65878,-21.8081 -45,-25.0512 -11.07047,-6.722 -26.56191,-15.2509 -39,-21.4718 -7.425,-3.7136 -15.3,-7.9734 -17.5,-9.4663 -2.2,-1.4929 -7.2625,-4.4158 -11.25,-6.4953 l -7.25,-3.781 v -59.8878 -59.8877 l 39.25,0.2616 39.25,0.2616 0.5,33.3824 0.5,33.3824 12,6.9921 c 6.6,3.8456 25.725,14.8619 42.5,24.4807 16.775,9.6187 34.0024,19.6877 38.2831,22.3755 4.28071,2.6878 7.97421,4.8869 8.20778,4.8869 0.35976,0 23.56041,-13.0229 97.25647,-54.5918 l 12.24736,-6.9082 0.003,-144.24997 0.002,-144.25 h 22.49998 22.5 v 178.88254 178.88253 l -14.25,7.7764 c -20.61137,11.2479 -80.5108,44.6994 -117.84517,65.8119 -11.32735,6.4056 -21.23972,11.6466 -22.02749,11.6466 -0.78777,0 -2.31994,-0.6199 -3.40481,-1.3775 z"
         id="path1" />
    </g>
  </g>
</svg>
